# xmcd
#
# Track frame offsets: 
#        150
#        10329
#        24801
#        26205
#        42594
#        60171
#        67299
#        84903
#        90519
#        106368
#        108231
#        119949
#        122622
#        140523
#        143331
#        161394
#        162852
#        189663
#        195900
#
# Disc length: 3984 seconds
#
# Revision: 0
# Processed by: cddbd v1.5.2PL0 Copyright (c) Steve Scherf et al.
# Submitted via: ExactAudioCopy v0.95b3
#
DISCID=f60f8e13
DTITLE=The Beatles  - The Days In Their Life - Vol.21  FLAC
DYEAR=1900
DGENRE=
TTITLE0=Narrative
TTITLE1=Temporary Secretary (Paul McCartney)
TTITLE2=Narrative
TTITLE3=Frozen Jap (Paul McCartney)
TTITLE4=NarrationComing Up
TTITLE5=Narrative
TTITLE6=Just Like Starting Over (John Lennon)
TTITLE7=Narrative
TTITLE8=Woman (John Lennon)
TTITLE9=Narrative
TTITLE10=Kiss Kiss Kiss (Yoko Ono)
TTITLE11=Narrative
TTITLE12=Beautiful Boy (Darling Boy) (John Lennon)
TTITLE13=Narrative
TTITLE14=I'm Losing You (John Lennon)
TTITLE15=Narrative
TTITLE16=Walking On Thin Ice (Yoko Ono)
TTITLE17=The Death Of John Lennon
TTITLE18=Beatles Sound Montage And Closing Credits
EXTD=
EXTT0=
EXTT1=
EXTT2=
EXTT3=
EXTT4=
EXTT5=
EXTT6=
EXTT7=
EXTT8=
EXTT9=
EXTT10=
EXTT11=
EXTT12=
EXTT13=
EXTT14=
EXTT15=
EXTT16=
EXTT17=
EXTT18=
PLAYORDER=
